{"title":"The Garbage Pail Kids PartsGuy DvdRip x264 LKRG","uid":5811160,"size":1320459090,"categoryP":"video","categoryS":"movies","magnet":"?xt=urn:btih:0af067cdb1cd900e4ee83ba346f4f7c853d558dc&amp;dn=The+Garbage+Pail+Kids+PartsGuy+DvdRip+x264+LKRG&amp;tr=udp%3A%2F%2Ftracker.openbittorrent.com%3A80&amp;tr=udp%3A%2F%2Fopen.demonii.com%3A1337&amp;tr=udp%3A%2F%2Ftracker.coppersurfer.tk%3A6969&amp;tr=udp%3A%2F%2Fexodus.desync.com%3A6969","seeders":0,"leechers":2,"uploader":"neon","files":-1,"time":1283636086,"description":"Teen Dodger (Mackenzie Astin) gets the surprise of his life when he uncovers a repulsive gang of alien kids in this gross-out tale based on the popular 1980s trading cards. Dodger decides to free Messy Tessie, Foul Phil, Valerie Vomit and the other filthy kids. Out of the garbage can, they help him fight bullies, but is the world ready for the icky Garbage Pail Kids or will authorities toss them down the disposal? Anthony Newley co-stars.\n\n\n\nGeneral\nComplete name : The Garbage Pail Kids PartsGuy DvdRip x264 LKRG.m4v\nFormat : MPEG-4\nFormat profile : Base Media / Version 2\nCodec ID : mp42\nFile size : 1.23 GiB\nDuration : 1h 36mn\nOverall bit rate : 1 823 Kbps\n\nideo\nID : 1\nFormat : AVC\nFormat/Info : Advanced Video Codec\nFormat profile : &lt;a class=&quot;__cf_email__&quot; href=&quot;/cdn-cgi/l/email-protection&quot; data-cfemail=&quot;e3ae828a8da3afd0cdd3&quot;&gt;[email&amp;#160;protected]&lt;/a&gt;&lt;script data-cfhash='f9e31' type=&quot;text/javascript&quot;&gt;\n/* &lt;![CDATA[ */!function(){try{var t=&quot;currentScript&quot;in document?document.currentScript:function(){for(var t=document.getElementsByTagName(&quot;script&quot;),e=t.length;e--;)if(t[e].getAttribute(&quot;data-cfhash&quot;))return t[e]}();if(t&amp;&amp;t.previousSibling){var e,r,n,i,c=t.previousSibling,a=c.getAttribute(&quot;data-cfemail&quot;);if(a){for(e=&quot;&quot;,r=parseInt(a.substr(0,2),16),n=2;a.length-n;n+=2)i=parseInt(a.substr(n,2),16)^r,e+=String.fromCharCode(i);e=document.createTextNode(e),c.parentNode.replaceChild(e,c)}t.parentNode.removeChild(t);}}catch(u){}}()/* ]]&gt; */&lt;/script&gt;\nFormat settings, CABAC : Yes\nFormat settings, ReFrames : 2 frames\nCodec ID : avc1\nCodec ID/Info : Advanced Video Coding\nDuration : 1h 36mn\nBit rate mode : Variable\nBit rate : 1 703 Kbps\nWidth : 720 pixels\nHeight : 472 pixels\nDisplay aspect ratio : 16:9\nFrame rate mode : Variable\nFrame rate : 27.754 fps\nOriginal frame rate : 29.970 fps\nMinimum frame rate : 14.985 fps\nMaximum frame rate : 29.970 fps\nColor space : YUV\nChroma subsampling : 4:2:0\nBit depth : 8 bits\nScan type : Progressive\nBits/(Pixel*Frame) : 0.181\nStream size : 1.15 GiB (93%)\nWriting library : x264 core 79\n\nAudio\nID : 2\nFormat : AAC\nformat/Info : Advanced Audio Codec\nFormat version : Version 4\nFormat profile : LC\nFormat settings, SBR : No\nCodec ID : 40\nDuration : 1h 36mn\nBit rate mode : Variable\nBit rate : 115 Kbps\nMaximum bit rate : 161 Kbps\nChannel(s) : 2 channels\nChannel positions : Front: L R\nSampling rate : 48.0 KHz\nStream size : 79.7 MiB (6%)\nLanguage : English","torrent":{"xt":"urn:btih:0af067cdb1cd900e4ee83ba346f4f7c853d558dc","amp;dn":"The+Garbage+Pail+Kids+PartsGuy+DvdRip+x264+LKRG","amp;tr":["udp%3A%2F%2Ftracker.openbittorrent.com%3A80","udp%3A%2F%2Fopen.demonii.com%3A1337","udp%3A%2F%2Ftracker.coppersurfer.tk%3A6969","udp%3A%2F%2Fexodus.desync.com%3A6969"],"infoHash":"0af067cdb1cd900e4ee83ba346f4f7c853d558dc","infoHashBuffer":{"type":"Buffer","data":[10,240,103,205,177,205,144,14,78,232,59,163,70,244,247,200,83,213,88,220]},"announce":[],"urlList":[]}}